<?xml version="1.0" encoding="UTF-8"?>
<svg xmlns="http://www.w3.org/2000/svg" version="1.1" width="300" height="300" viewBox="0 0 300 300"><rect x="0" y="0" width="300" height="300" fill="#ffffff"/><g transform="scale(9.091)"><g transform="translate(0,0)"><path fill-rule="evenodd" d="M9 0L9 1L8 1L8 2L10 2L10 3L9 3L9 4L10 4L10 7L9 7L9 5L8 5L8 8L4 8L4 9L0 9L0 10L4 10L4 11L1 11L1 13L3 13L3 14L2 14L2 15L1 15L1 16L0 16L0 19L1 19L1 18L2 18L2 19L3 19L3 20L2 20L2 21L0 21L0 22L2 22L2 23L3 23L3 25L5 25L5 24L6 24L6 25L8 25L8 29L9 29L9 31L11 31L11 30L12 30L12 33L15 33L15 32L14 32L14 31L13 31L13 30L16 30L16 31L17 31L17 30L19 30L19 31L20 31L20 33L21 33L21 32L24 32L24 33L27 33L27 32L28 32L28 31L29 31L29 30L30 30L30 31L31 31L31 30L32 30L32 29L33 29L33 28L32 28L32 25L33 25L33 24L32 24L32 23L31 23L31 24L24 24L24 25L23 25L23 24L22 24L22 23L24 23L24 22L26 22L26 23L27 23L27 22L28 22L28 21L29 21L29 23L30 23L30 22L32 22L32 21L33 21L33 19L32 19L32 17L33 17L33 15L32 15L32 14L31 14L31 13L29 13L29 12L30 12L30 11L32 11L32 12L33 12L33 11L32 11L32 10L31 10L31 9L32 9L32 8L31 8L31 9L30 9L30 10L29 10L29 11L27 11L27 10L28 10L28 8L26 8L26 9L25 9L25 8L22 8L22 7L23 7L23 5L24 5L24 7L25 7L25 3L24 3L24 2L25 2L25 1L24 1L24 0L23 0L23 1L24 1L24 2L22 2L22 0L21 0L21 1L20 1L20 0L19 0L19 1L18 1L18 0L14 0L14 2L13 2L13 1L12 1L12 2L11 2L11 0ZM15 1L15 3L14 3L14 4L15 4L15 5L13 5L13 4L12 4L12 6L11 6L11 7L10 7L10 9L9 9L9 8L8 8L8 9L5 9L5 11L4 11L4 12L3 12L3 13L4 13L4 15L2 15L2 16L1 16L1 17L2 17L2 18L3 18L3 17L6 17L6 18L5 18L5 19L4 19L4 20L3 20L3 23L4 23L4 24L5 24L5 22L9 22L9 21L10 21L10 22L11 22L11 23L13 23L13 21L14 21L14 22L15 22L15 23L14 23L14 24L15 24L15 26L17 26L17 25L18 25L18 27L19 27L19 26L20 26L20 27L21 27L21 26L20 26L20 25L21 25L21 24L20 24L20 23L21 23L21 22L20 22L20 23L19 23L19 22L18 22L18 23L17 23L17 25L16 25L16 21L15 21L15 20L16 20L16 19L15 19L15 18L16 18L16 17L17 17L17 16L19 16L19 17L18 17L18 19L17 19L17 20L18 20L18 21L19 21L19 20L18 20L18 19L22 19L22 18L23 18L23 17L24 17L24 18L25 18L25 17L26 17L26 19L24 19L24 21L25 21L25 20L27 20L27 21L26 21L26 22L27 22L27 21L28 21L28 20L27 20L27 17L28 17L28 19L30 19L30 20L29 20L29 21L31 21L31 19L30 19L30 18L31 18L31 17L28 17L28 16L32 16L32 15L31 15L31 14L29 14L29 13L28 13L28 12L27 12L27 11L26 11L26 10L27 10L27 9L26 9L26 10L25 10L25 9L24 9L24 11L23 11L23 13L26 13L26 14L24 14L24 15L23 15L23 14L22 14L22 16L23 16L23 17L21 17L21 13L20 13L20 11L18 11L18 10L19 10L19 8L17 8L17 12L16 12L16 11L15 11L15 10L16 10L16 8L14 8L14 6L15 6L15 7L16 7L16 6L17 6L17 7L18 7L18 6L17 6L17 4L18 4L18 3L20 3L20 4L22 4L22 5L23 5L23 4L22 4L22 3L21 3L21 2L18 2L18 3L17 3L17 2L16 2L16 1ZM12 2L12 3L13 3L13 2ZM15 3L15 4L16 4L16 3ZM15 5L15 6L16 6L16 5ZM20 5L20 6L19 6L19 7L20 7L20 6L21 6L21 7L22 7L22 6L21 6L21 5ZM12 6L12 7L11 7L11 10L10 10L10 12L11 12L11 13L13 13L13 14L14 14L14 15L13 15L13 16L15 16L15 17L12 17L12 18L11 18L11 19L9 19L9 20L8 20L8 18L10 18L10 17L11 17L11 16L12 16L12 14L11 14L11 15L9 15L9 14L10 14L10 13L9 13L9 14L8 14L8 11L9 11L9 10L8 10L8 11L7 11L7 10L6 10L6 11L5 11L5 12L6 12L6 13L7 13L7 14L6 14L6 15L7 15L7 16L6 16L6 17L7 17L7 18L6 18L6 19L7 19L7 20L4 20L4 22L5 22L5 21L9 21L9 20L11 20L11 19L13 19L13 20L12 20L12 21L11 21L11 22L12 22L12 21L13 21L13 20L15 20L15 19L14 19L14 18L15 18L15 17L16 17L16 16L15 16L15 15L19 15L19 16L20 16L20 15L19 15L19 14L20 14L20 13L18 13L18 12L17 12L17 14L16 14L16 12L15 12L15 11L14 11L14 10L15 10L15 9L14 9L14 8L13 8L13 6ZM12 8L12 9L13 9L13 8ZM20 8L20 10L21 10L21 11L22 11L22 10L23 10L23 9L21 9L21 8ZM11 10L11 12L13 12L13 13L15 13L15 12L14 12L14 11L13 11L13 10ZM6 11L6 12L7 12L7 11ZM24 11L24 12L26 12L26 13L27 13L27 14L26 14L26 15L25 15L25 16L26 16L26 17L27 17L27 16L28 16L28 15L29 15L29 14L28 14L28 13L27 13L27 12L26 12L26 11ZM27 14L27 15L26 15L26 16L27 16L27 15L28 15L28 14ZM4 15L4 16L5 16L5 15ZM2 16L2 17L3 17L3 16ZM9 16L9 17L10 17L10 16ZM19 17L19 18L20 18L20 17ZM22 20L22 21L23 21L23 20ZM6 23L6 24L8 24L8 25L9 25L9 29L10 29L10 30L11 30L11 29L12 29L12 30L13 30L13 29L12 29L12 28L13 28L13 26L12 26L12 25L11 25L11 26L10 26L10 25L9 25L9 23ZM0 24L0 25L2 25L2 24ZM19 24L19 25L20 25L20 24ZM22 25L22 28L19 28L19 30L20 30L20 31L24 31L24 30L25 30L25 31L26 31L26 32L27 32L27 31L28 31L28 30L27 30L27 31L26 31L26 29L24 29L24 26L23 26L23 25ZM25 25L25 28L28 28L28 25ZM30 25L30 28L29 28L29 29L30 29L30 30L31 30L31 29L32 29L32 28L31 28L31 25ZM26 26L26 27L27 27L27 26ZM14 27L14 28L15 28L15 27ZM16 28L16 29L18 29L18 28ZM21 29L21 30L22 30L22 29ZM18 32L18 33L19 33L19 32ZM32 32L32 33L33 33L33 32ZM0 0L0 7L7 7L7 0ZM1 1L1 6L6 6L6 1ZM2 2L2 5L5 5L5 2ZM26 0L26 7L33 7L33 0ZM27 1L27 6L32 6L32 1ZM28 2L28 5L31 5L31 2ZM0 26L0 33L7 33L7 26ZM1 27L1 32L6 32L6 27ZM2 28L2 31L5 31L5 28Z" fill="#000000"/></g></g></svg>
