<?xml version="1.0" encoding="UTF-8"?>
<svg xmlns="http://www.w3.org/2000/svg" version="1.1" width="300" height="300" viewBox="0 0 300 300"><rect x="0" y="0" width="300" height="300" fill="#ffffff"/><g transform="scale(10.345)"><g transform="translate(0,0)"><path fill-rule="evenodd" d="M9 0L9 1L8 1L8 7L9 7L9 8L5 8L5 9L8 9L8 10L9 10L9 11L8 11L8 12L9 12L9 13L8 13L8 14L6 14L6 15L3 15L3 14L2 14L2 16L3 16L3 18L4 18L4 20L0 20L0 21L5 21L5 20L6 20L6 21L7 21L7 20L8 20L8 24L10 24L10 25L9 25L9 26L8 26L8 27L9 27L9 28L11 28L11 29L13 29L13 28L12 28L12 27L13 27L13 25L15 25L15 26L16 26L16 28L17 28L17 29L18 29L18 27L19 27L19 26L20 26L20 27L21 27L21 29L22 29L22 28L23 28L23 29L24 29L24 28L23 28L23 27L22 27L22 25L24 25L24 27L25 27L25 28L26 28L26 27L29 27L29 26L28 26L28 23L29 23L29 20L28 20L28 19L29 19L29 16L28 16L28 17L26 17L26 18L24 18L24 19L23 19L23 20L22 20L22 19L21 19L21 20L18 20L18 21L17 21L17 19L16 19L16 18L17 18L17 16L16 16L16 15L15 15L15 14L16 14L16 12L17 12L17 15L18 15L18 17L19 17L19 16L21 16L21 18L22 18L22 17L25 17L25 16L26 16L26 14L24 14L24 13L23 13L23 12L25 12L25 11L26 11L26 10L25 10L25 9L28 9L28 10L27 10L27 13L28 13L28 14L27 14L27 15L29 15L29 13L28 13L28 12L29 12L29 9L28 9L28 8L23 8L23 10L21 10L21 9L22 9L22 8L21 8L21 6L20 6L20 8L19 8L19 9L20 9L20 11L19 11L19 12L18 12L18 11L17 11L17 9L18 9L18 7L19 7L19 5L20 5L20 4L21 4L21 0L19 0L19 1L17 1L17 0L16 0L16 1L15 1L15 2L14 2L14 5L12 5L12 3L11 3L11 2L13 2L13 1L14 1L14 0L12 0L12 1L11 1L11 0ZM9 1L9 2L10 2L10 1ZM16 1L16 2L15 2L15 5L16 5L16 6L15 6L15 7L14 7L14 6L13 6L13 9L14 9L14 10L15 10L15 12L14 12L14 11L13 11L13 12L12 12L12 13L15 13L15 12L16 12L16 10L15 10L15 8L16 8L16 9L17 9L17 7L18 7L18 6L17 6L17 5L18 5L18 4L16 4L16 3L17 3L17 1ZM19 1L19 2L18 2L18 3L19 3L19 4L20 4L20 3L19 3L19 2L20 2L20 1ZM9 5L9 7L10 7L10 8L9 8L9 10L10 10L10 11L9 11L9 12L10 12L10 11L12 11L12 10L10 10L10 9L11 9L11 7L12 7L12 6L11 6L11 7L10 7L10 5ZM16 6L16 7L17 7L17 6ZM2 8L2 9L3 9L3 10L2 10L2 11L1 11L1 9L0 9L0 12L1 12L1 13L2 13L2 12L3 12L3 13L4 13L4 12L5 12L5 10L4 10L4 9L3 9L3 8ZM6 10L6 11L7 11L7 10ZM24 10L24 11L25 11L25 10ZM21 11L21 12L19 12L19 13L21 13L21 14L22 14L22 12L23 12L23 11ZM6 12L6 13L7 13L7 12ZM10 13L10 14L9 14L9 15L8 15L8 16L9 16L9 17L8 17L8 18L7 18L7 17L6 17L6 18L7 18L7 19L6 19L6 20L7 20L7 19L8 19L8 20L10 20L10 22L9 22L9 23L10 23L10 24L11 24L11 25L10 25L10 26L11 26L11 27L12 27L12 26L11 26L11 25L12 25L12 23L13 23L13 22L16 22L16 24L15 24L15 23L14 23L14 24L15 24L15 25L18 25L18 26L17 26L17 27L18 27L18 26L19 26L19 23L20 23L20 21L18 21L18 24L17 24L17 21L16 21L16 20L15 20L15 21L13 21L13 19L12 19L12 17L13 17L13 18L15 18L15 17L13 17L13 16L15 16L15 15L14 15L14 14L13 14L13 16L12 16L12 14L11 14L11 13ZM18 14L18 15L19 15L19 14ZM23 14L23 15L22 15L22 16L24 16L24 14ZM0 15L0 16L1 16L1 15ZM6 15L6 16L7 16L7 15ZM9 17L9 18L8 18L8 19L10 19L10 20L12 20L12 19L11 19L11 18L10 18L10 17ZM0 18L0 19L2 19L2 18ZM18 18L18 19L20 19L20 18ZM26 18L26 19L25 19L25 23L26 23L26 25L25 25L25 27L26 27L26 26L27 26L27 23L28 23L28 21L27 21L27 19L28 19L28 18ZM11 21L11 23L12 23L12 21ZM21 21L21 24L24 24L24 21ZM22 22L22 23L23 23L23 22ZM20 25L20 26L21 26L21 25ZM14 27L14 28L15 28L15 27ZM28 28L28 29L29 29L29 28ZM0 0L0 7L7 7L7 0ZM1 1L1 6L6 6L6 1ZM2 2L2 5L5 5L5 2ZM22 0L22 7L29 7L29 0ZM23 1L23 6L28 6L28 1ZM24 2L24 5L27 5L27 2ZM0 22L0 29L7 29L7 22ZM1 23L1 28L6 28L6 23ZM2 24L2 27L5 27L5 24Z" fill="#000000"/></g></g></svg>
