<?xml version="1.0" encoding="UTF-8"?>
<svg xmlns="http://www.w3.org/2000/svg" version="1.1" width="300" height="300" viewBox="0 0 300 300"><rect x="0" y="0" width="300" height="300" fill="#ffffff"/><g transform="scale(9.091)"><g transform="translate(0,0)"><path fill-rule="evenodd" d="M9 0L9 1L8 1L8 2L10 2L10 3L9 3L9 4L10 4L10 7L9 7L9 5L8 5L8 8L4 8L4 9L0 9L0 10L4 10L4 11L1 11L1 13L2 13L2 15L1 15L1 16L0 16L0 19L1 19L1 20L0 20L0 22L1 22L1 20L2 20L2 23L3 23L3 25L5 25L5 24L6 24L6 25L8 25L8 29L9 29L9 31L11 31L11 30L12 30L12 33L15 33L15 32L14 32L14 31L13 31L13 30L16 30L16 31L17 31L17 30L19 30L19 31L20 31L20 33L21 33L21 32L24 32L24 33L27 33L27 32L28 32L28 31L29 31L29 30L30 30L30 31L31 31L31 30L32 30L32 29L33 29L33 28L32 28L32 25L33 25L33 24L32 24L32 23L31 23L31 24L24 24L24 25L23 25L23 24L22 24L22 23L24 23L24 22L26 22L26 23L27 23L27 22L28 22L28 21L29 21L29 23L30 23L30 22L32 22L32 21L33 21L33 19L32 19L32 17L33 17L33 15L32 15L32 14L31 14L31 13L29 13L29 12L30 12L30 11L32 11L32 12L33 12L33 11L32 11L32 10L31 10L31 9L32 9L32 8L31 8L31 9L30 9L30 10L29 10L29 11L27 11L27 10L28 10L28 8L26 8L26 9L25 9L25 8L22 8L22 7L23 7L23 5L24 5L24 7L25 7L25 3L24 3L24 2L25 2L25 1L24 1L24 0L23 0L23 1L24 1L24 2L22 2L22 0L21 0L21 1L20 1L20 0L19 0L19 1L18 1L18 0L14 0L14 2L13 2L13 1L12 1L12 2L11 2L11 0ZM15 1L15 3L14 3L14 4L15 4L15 3L16 3L16 5L13 5L13 8L12 8L12 6L11 6L11 7L10 7L10 10L9 10L9 8L8 8L8 9L5 9L5 11L4 11L4 13L3 13L3 17L2 17L2 16L1 16L1 17L2 17L2 18L1 18L1 19L2 19L2 20L3 20L3 23L4 23L4 24L5 24L5 22L9 22L9 21L10 21L10 22L11 22L11 23L13 23L13 21L14 21L14 22L15 22L15 23L14 23L14 24L15 24L15 26L12 26L12 24L11 24L11 26L10 26L10 25L9 25L9 23L6 23L6 24L8 24L8 25L9 25L9 28L10 28L10 29L12 29L12 30L13 30L13 29L14 29L14 28L13 28L13 27L15 27L15 26L17 26L17 25L18 25L18 26L20 26L20 27L21 27L21 26L20 26L20 25L21 25L21 23L20 23L20 22L21 22L21 21L19 21L19 20L18 20L18 19L22 19L22 18L23 18L23 17L24 17L24 18L25 18L25 17L26 17L26 19L24 19L24 21L25 21L25 20L27 20L27 21L26 21L26 22L27 22L27 21L28 21L28 20L27 20L27 17L28 17L28 19L30 19L30 20L29 20L29 21L31 21L31 19L30 19L30 18L31 18L31 17L28 17L28 16L32 16L32 15L31 15L31 14L29 14L29 13L28 13L28 12L27 12L27 11L26 11L26 10L27 10L27 9L26 9L26 10L25 10L25 9L24 9L24 11L22 11L22 12L23 12L23 13L26 13L26 14L24 14L24 15L23 15L23 14L22 14L22 16L23 16L23 17L21 17L21 13L20 13L20 11L17 11L17 12L16 12L16 11L15 11L15 10L16 10L16 9L15 9L15 8L16 8L16 5L17 5L17 4L18 4L18 3L20 3L20 4L22 4L22 5L23 5L23 4L22 4L22 3L21 3L21 2L18 2L18 3L17 3L17 2L16 2L16 1ZM12 2L12 4L13 4L13 2ZM19 5L19 7L20 7L20 6L21 6L21 7L22 7L22 6L21 6L21 5ZM14 6L14 8L13 8L13 9L12 9L12 8L11 8L11 10L13 10L13 9L14 9L14 10L15 10L15 9L14 9L14 8L15 8L15 6ZM17 6L17 7L18 7L18 6ZM17 8L17 10L19 10L19 8ZM20 8L20 10L23 10L23 9L21 9L21 8ZM6 10L6 11L5 11L5 12L6 12L6 13L8 13L8 14L6 14L6 15L7 15L7 16L6 16L6 17L3 17L3 18L2 18L2 19L3 19L3 20L4 20L4 22L5 22L5 21L9 21L9 20L11 20L11 19L13 19L13 20L12 20L12 21L11 21L11 22L12 22L12 21L13 21L13 20L15 20L15 22L16 22L16 21L17 21L17 23L18 23L18 22L19 22L19 21L18 21L18 20L17 20L17 19L18 19L18 17L19 17L19 18L20 18L20 17L19 17L19 16L20 16L20 15L19 15L19 14L20 14L20 13L19 13L19 14L18 14L18 13L17 13L17 14L16 14L16 12L15 12L15 14L14 14L14 13L13 13L13 12L14 12L14 11L13 11L13 12L11 12L11 13L10 13L10 12L8 12L8 11L9 11L9 10L8 10L8 11L7 11L7 10ZM6 11L6 12L7 12L7 11ZM24 11L24 12L26 12L26 13L27 13L27 14L26 14L26 15L25 15L25 16L26 16L26 17L27 17L27 16L28 16L28 15L29 15L29 14L28 14L28 13L27 13L27 12L26 12L26 11ZM11 13L11 14L8 14L8 15L11 15L11 14L12 14L12 16L11 16L11 17L10 17L10 16L9 16L9 17L10 17L10 18L8 18L8 20L9 20L9 19L11 19L11 18L12 18L12 17L15 17L15 18L14 18L14 19L15 19L15 20L16 20L16 19L15 19L15 18L16 18L16 17L17 17L17 16L19 16L19 15L15 15L15 16L13 16L13 15L14 15L14 14L13 14L13 13ZM27 14L27 15L26 15L26 16L27 16L27 15L28 15L28 14ZM4 15L4 16L5 16L5 15ZM15 16L15 17L16 17L16 16ZM6 17L6 18L7 18L7 17ZM4 18L4 20L5 20L5 18ZM6 19L6 20L7 20L7 19ZM22 20L22 21L23 21L23 20ZM15 23L15 24L16 24L16 25L17 25L17 24L16 24L16 23ZM19 23L19 25L20 25L20 23ZM0 24L0 25L2 25L2 24ZM22 25L22 28L19 28L19 27L18 27L18 28L16 28L16 29L19 29L19 30L20 30L20 31L24 31L24 30L25 30L25 31L26 31L26 32L27 32L27 31L28 31L28 30L27 30L27 31L26 31L26 29L24 29L24 26L23 26L23 25ZM25 25L25 28L28 28L28 25ZM30 25L30 28L29 28L29 29L30 29L30 30L31 30L31 29L32 29L32 28L31 28L31 25ZM26 26L26 27L27 27L27 26ZM10 27L10 28L11 28L11 27ZM12 28L12 29L13 29L13 28ZM21 29L21 30L22 30L22 29ZM18 32L18 33L19 33L19 32ZM32 32L32 33L33 33L33 32ZM0 0L0 7L7 7L7 0ZM1 1L1 6L6 6L6 1ZM2 2L2 5L5 5L5 2ZM26 0L26 7L33 7L33 0ZM27 1L27 6L32 6L32 1ZM28 2L28 5L31 5L31 2ZM0 26L0 33L7 33L7 26ZM1 27L1 32L6 32L6 27ZM2 28L2 31L5 31L5 28Z" fill="#000000"/></g></g></svg>
